<mxfile host="app.diagrams.net" agent="Mozilla/5.0 (Windows NT 10.0; Win64; x64) AppleWebKit/537.36 (KHTML, like Gecko) Chrome/140.0.0.0 Safari/537.36" version="28.2.4">
  <diagram name="Página-1" id="65eGbLwkDErQRxcZzfRo">
    <mxGraphModel dx="1042" dy="561" grid="1" gridSize="10" guides="1" tooltips="1" connect="1" arrows="1" fold="1" page="1" pageScale="1" pageWidth="827" pageHeight="1169" math="0" shadow="0">
      <root>
        <mxCell id="0" />
        <mxCell id="1" parent="0" />
        <mxCell id="23mUf4dL8G6skLKCDrFL-1" value="Vendedor" style="shape=umlActor;verticalLabelPosition=bottom;verticalAlign=top;html=1;outlineConnect=0;" vertex="1" parent="1">
          <mxGeometry x="40" y="30" width="30" height="60" as="geometry" />
        </mxCell>
        <mxCell id="23mUf4dL8G6skLKCDrFL-10" style="edgeStyle=orthogonalEdgeStyle;rounded=0;orthogonalLoop=1;jettySize=auto;html=1;" edge="1" parent="1" source="23mUf4dL8G6skLKCDrFL-2" target="23mUf4dL8G6skLKCDrFL-4">
          <mxGeometry relative="1" as="geometry" />
        </mxCell>
        <mxCell id="23mUf4dL8G6skLKCDrFL-2" value="Conexão PAP" style="sketch=0;outlineConnect=0;fontColor=#232F3E;gradientColor=none;fillColor=#232F3D;strokeColor=none;dashed=0;verticalLabelPosition=bottom;verticalAlign=top;align=center;html=1;fontSize=12;fontStyle=0;aspect=fixed;pointerEvents=1;shape=mxgraph.aws4.mobile_client;" vertex="1" parent="1">
          <mxGeometry x="120" y="140" width="41" height="78" as="geometry" />
        </mxCell>
        <mxCell id="23mUf4dL8G6skLKCDrFL-3" value="" style="endArrow=classic;html=1;rounded=0;" edge="1" parent="1" source="23mUf4dL8G6skLKCDrFL-1" target="23mUf4dL8G6skLKCDrFL-2">
          <mxGeometry width="50" height="50" relative="1" as="geometry">
            <mxPoint x="50" y="180" as="sourcePoint" />
            <mxPoint x="100" y="130" as="targetPoint" />
          </mxGeometry>
        </mxCell>
        <mxCell id="23mUf4dL8G6skLKCDrFL-6" value="" style="edgeStyle=orthogonalEdgeStyle;rounded=0;orthogonalLoop=1;jettySize=auto;html=1;" edge="1" parent="1" source="23mUf4dL8G6skLKCDrFL-4" target="23mUf4dL8G6skLKCDrFL-5">
          <mxGeometry relative="1" as="geometry" />
        </mxCell>
        <mxCell id="23mUf4dL8G6skLKCDrFL-4" value="Oferece pacote ao Cliente" style="rounded=1;whiteSpace=wrap;html=1;" vertex="1" parent="1">
          <mxGeometry x="200" y="149" width="120" height="60" as="geometry" />
        </mxCell>
        <mxCell id="23mUf4dL8G6skLKCDrFL-5" value="Gera termo" style="whiteSpace=wrap;html=1;rounded=1;" vertex="1" parent="1">
          <mxGeometry x="400" y="149" width="120" height="60" as="geometry" />
        </mxCell>
        <mxCell id="23mUf4dL8G6skLKCDrFL-7" value="Cliente" style="shape=umlActor;verticalLabelPosition=bottom;verticalAlign=top;html=1;outlineConnect=0;" vertex="1" parent="1">
          <mxGeometry x="260" y="30" width="30" height="60" as="geometry" />
        </mxCell>
        <mxCell id="23mUf4dL8G6skLKCDrFL-8" value="" style="endArrow=classic;html=1;rounded=0;entryX=0.5;entryY=0;entryDx=0;entryDy=0;" edge="1" parent="1" source="23mUf4dL8G6skLKCDrFL-7" target="23mUf4dL8G6skLKCDrFL-5">
          <mxGeometry width="50" height="50" relative="1" as="geometry">
            <mxPoint x="140" y="110" as="sourcePoint" />
            <mxPoint x="190" y="179" as="targetPoint" />
          </mxGeometry>
        </mxCell>
        <mxCell id="23mUf4dL8G6skLKCDrFL-9" value="Assina na tela" style="edgeLabel;html=1;align=center;verticalAlign=middle;resizable=0;points=[];" vertex="1" connectable="0" parent="23mUf4dL8G6skLKCDrFL-8">
          <mxGeometry x="-0.2491" y="-1" relative="1" as="geometry">
            <mxPoint x="46" y="11" as="offset" />
          </mxGeometry>
        </mxCell>
      </root>
    </mxGraphModel>
  </diagram>
</mxfile>
